<mxfile host="app.diagrams.net" modified="2023-11-13T22:15:55.757Z" agent="Mozilla/5.0 (Windows NT 10.0; Win64; x64) AppleWebKit/537.36 (KHTML, like Gecko) Chrome/119.0.0.0 Safari/537.36" etag="ZdVoTRHS5gYnnx56_Mvy" version="22.1.0" type="device">
  <diagram name="Page-1" id="Y2D5G1NJOct-wqYYKSaP">
    <mxGraphModel dx="1304" dy="800" grid="1" gridSize="10" guides="1" tooltips="1" connect="1" arrows="1" fold="1" page="1" pageScale="1" pageWidth="850" pageHeight="1100" math="0" shadow="0">
      <root>
        <mxCell id="0" />
        <mxCell id="1" parent="0" />
        <mxCell id="trHiihsDUhTbvpWH3-bE-3" value="Order" style="whiteSpace=wrap;html=1;align=center;fillColor=#dae8fc;strokeColor=#6c8ebf;" vertex="1" parent="1">
          <mxGeometry x="390" y="350" width="100" height="40" as="geometry" />
        </mxCell>
        <mxCell id="trHiihsDUhTbvpWH3-bE-6" value="Customer" style="whiteSpace=wrap;html=1;align=center;fillColor=#dae8fc;strokeColor=#6c8ebf;" vertex="1" parent="1">
          <mxGeometry x="100" y="780" width="100" height="40" as="geometry" />
        </mxCell>
        <mxCell id="trHiihsDUhTbvpWH3-bE-8" value="Chef" style="whiteSpace=wrap;html=1;align=center;fillColor=#dae8fc;strokeColor=#6c8ebf;" vertex="1" parent="1">
          <mxGeometry x="100" y="360" width="100" height="40" as="geometry" />
        </mxCell>
        <mxCell id="trHiihsDUhTbvpWH3-bE-9" value="Transportation" style="whiteSpace=wrap;html=1;align=center;fillColor=#ffe6cc;strokeColor=#d79b00;" vertex="1" parent="1">
          <mxGeometry x="220" y="260" width="100" height="40" as="geometry" />
        </mxCell>
        <mxCell id="trHiihsDUhTbvpWH3-bE-10" value="Location" style="whiteSpace=wrap;html=1;align=center;fillColor=#dae8fc;strokeColor=#6c8ebf;" vertex="1" parent="1">
          <mxGeometry x="100" y="200" width="100" height="40" as="geometry" />
        </mxCell>
        <mxCell id="trHiihsDUhTbvpWH3-bE-11" value="Date n Time" style="whiteSpace=wrap;html=1;align=center;fillColor=#ffe6cc;strokeColor=#d79b00;" vertex="1" parent="1">
          <mxGeometry x="630" y="260" width="100" height="40" as="geometry" />
        </mxCell>
        <mxCell id="trHiihsDUhTbvpWH3-bE-12" value="Reviews" style="whiteSpace=wrap;html=1;align=center;fillColor=#dae8fc;strokeColor=#6c8ebf;" vertex="1" parent="1">
          <mxGeometry x="100" y="590" width="100" height="40" as="geometry" />
        </mxCell>
        <mxCell id="trHiihsDUhTbvpWH3-bE-13" value="Quantity" style="whiteSpace=wrap;html=1;align=center;fillColor=#ffe6cc;strokeColor=#d79b00;" vertex="1" parent="1">
          <mxGeometry x="550" y="180" width="100" height="40" as="geometry" />
        </mxCell>
        <mxCell id="trHiihsDUhTbvpWH3-bE-14" value="Price" style="whiteSpace=wrap;html=1;align=center;fillColor=#ffe6cc;strokeColor=#d79b00;" vertex="1" parent="1">
          <mxGeometry x="280" y="180" width="100" height="40" as="geometry" />
        </mxCell>
        <mxCell id="trHiihsDUhTbvpWH3-bE-31" value="" style="endArrow=block;startArrow=block;endFill=1;startFill=1;html=1;rounded=0;exitX=1;exitY=0.75;exitDx=0;exitDy=0;entryX=0.5;entryY=0;entryDx=0;entryDy=0;" edge="1" parent="1" source="trHiihsDUhTbvpWH3-bE-14" target="trHiihsDUhTbvpWH3-bE-3">
          <mxGeometry width="160" relative="1" as="geometry">
            <mxPoint x="500" y="170" as="sourcePoint" />
            <mxPoint x="660" y="170" as="targetPoint" />
            <Array as="points">
              <mxPoint x="440" y="210" />
            </Array>
          </mxGeometry>
        </mxCell>
        <mxCell id="trHiihsDUhTbvpWH3-bE-33" value="1" style="edgeLabel;html=1;align=center;verticalAlign=middle;resizable=0;points=[];" vertex="1" connectable="0" parent="trHiihsDUhTbvpWH3-bE-31">
          <mxGeometry x="0.71" relative="1" as="geometry">
            <mxPoint as="offset" />
          </mxGeometry>
        </mxCell>
        <mxCell id="trHiihsDUhTbvpWH3-bE-34" value="1" style="edgeLabel;html=1;align=center;verticalAlign=middle;resizable=0;points=[];" vertex="1" connectable="0" parent="trHiihsDUhTbvpWH3-bE-31">
          <mxGeometry x="-0.7" y="-1" relative="1" as="geometry">
            <mxPoint as="offset" />
          </mxGeometry>
        </mxCell>
        <mxCell id="trHiihsDUhTbvpWH3-bE-35" value="" style="endArrow=block;startArrow=block;endFill=1;startFill=1;html=1;rounded=0;exitX=0;exitY=0.5;exitDx=0;exitDy=0;entryX=0.815;entryY=0.023;entryDx=0;entryDy=0;entryPerimeter=0;" edge="1" parent="1" source="trHiihsDUhTbvpWH3-bE-13" target="trHiihsDUhTbvpWH3-bE-3">
          <mxGeometry width="160" relative="1" as="geometry">
            <mxPoint x="390" y="220" as="sourcePoint" />
            <mxPoint x="450" y="360" as="targetPoint" />
            <Array as="points">
              <mxPoint x="472" y="220" />
            </Array>
          </mxGeometry>
        </mxCell>
        <mxCell id="trHiihsDUhTbvpWH3-bE-36" value="1" style="edgeLabel;html=1;align=center;verticalAlign=middle;resizable=0;points=[];" vertex="1" connectable="0" parent="trHiihsDUhTbvpWH3-bE-35">
          <mxGeometry x="0.71" relative="1" as="geometry">
            <mxPoint as="offset" />
          </mxGeometry>
        </mxCell>
        <mxCell id="trHiihsDUhTbvpWH3-bE-65" value="1..*" style="edgeLabel;html=1;align=center;verticalAlign=middle;resizable=0;points=[];" vertex="1" connectable="0" parent="trHiihsDUhTbvpWH3-bE-35">
          <mxGeometry x="-0.5567" y="-2" relative="1" as="geometry">
            <mxPoint as="offset" />
          </mxGeometry>
        </mxCell>
        <mxCell id="trHiihsDUhTbvpWH3-bE-39" value="Food" style="whiteSpace=wrap;html=1;align=center;fillColor=#dae8fc;strokeColor=#6c8ebf;" vertex="1" parent="1">
          <mxGeometry x="390" y="590" width="100" height="40" as="geometry" />
        </mxCell>
        <mxCell id="trHiihsDUhTbvpWH3-bE-43" value="1" style="endArrow=open;html=1;endSize=12;startArrow=diamondThin;startSize=14;startFill=0;edgeStyle=orthogonalEdgeStyle;align=left;verticalAlign=bottom;rounded=0;exitX=0.5;exitY=0;exitDx=0;exitDy=0;entryX=0.5;entryY=1;entryDx=0;entryDy=0;" edge="1" parent="1" source="trHiihsDUhTbvpWH3-bE-6" target="trHiihsDUhTbvpWH3-bE-12">
          <mxGeometry x="-1" y="3" relative="1" as="geometry">
            <mxPoint x="230" y="700" as="sourcePoint" />
            <mxPoint x="390" y="700" as="targetPoint" />
          </mxGeometry>
        </mxCell>
        <mxCell id="trHiihsDUhTbvpWH3-bE-47" value="0..*" style="edgeLabel;html=1;align=center;verticalAlign=middle;resizable=0;points=[];" vertex="1" connectable="0" parent="trHiihsDUhTbvpWH3-bE-43">
          <mxGeometry x="0.6485" relative="1" as="geometry">
            <mxPoint as="offset" />
          </mxGeometry>
        </mxCell>
        <mxCell id="trHiihsDUhTbvpWH3-bE-44" value="1" style="endArrow=open;html=1;endSize=12;startArrow=diamondThin;startSize=14;startFill=0;edgeStyle=orthogonalEdgeStyle;align=left;verticalAlign=bottom;rounded=0;exitX=0.5;exitY=0;exitDx=0;exitDy=0;entryX=0.5;entryY=0;entryDx=0;entryDy=0;" edge="1" parent="1" target="trHiihsDUhTbvpWH3-bE-12">
          <mxGeometry x="-1" y="3" relative="1" as="geometry">
            <mxPoint x="149.55" y="400" as="sourcePoint" />
            <mxPoint x="149.55" y="560" as="targetPoint" />
          </mxGeometry>
        </mxCell>
        <mxCell id="trHiihsDUhTbvpWH3-bE-46" value="0..*" style="edgeLabel;html=1;align=center;verticalAlign=middle;resizable=0;points=[];" vertex="1" connectable="0" parent="trHiihsDUhTbvpWH3-bE-44">
          <mxGeometry x="0.2406" y="1" relative="1" as="geometry">
            <mxPoint x="-1" y="32" as="offset" />
          </mxGeometry>
        </mxCell>
        <mxCell id="trHiihsDUhTbvpWH3-bE-45" value="1" style="endArrow=open;html=1;endSize=12;startArrow=diamondThin;startSize=14;startFill=0;edgeStyle=orthogonalEdgeStyle;align=left;verticalAlign=bottom;rounded=0;exitX=0.5;exitY=1;exitDx=0;exitDy=0;" edge="1" parent="1" source="trHiihsDUhTbvpWH3-bE-3" target="trHiihsDUhTbvpWH3-bE-39">
          <mxGeometry x="-1" y="3" relative="1" as="geometry">
            <mxPoint x="170" y="650" as="sourcePoint" />
            <mxPoint x="170" y="810" as="targetPoint" />
          </mxGeometry>
        </mxCell>
        <mxCell id="trHiihsDUhTbvpWH3-bE-54" value="1..*" style="edgeLabel;html=1;align=center;verticalAlign=middle;resizable=0;points=[];" vertex="1" connectable="0" parent="trHiihsDUhTbvpWH3-bE-45">
          <mxGeometry x="0.0182" relative="1" as="geometry">
            <mxPoint y="2" as="offset" />
          </mxGeometry>
        </mxCell>
        <mxCell id="trHiihsDUhTbvpWH3-bE-48" value="1" style="endArrow=open;html=1;endSize=12;startArrow=diamondThin;startSize=14;startFill=0;edgeStyle=orthogonalEdgeStyle;align=left;verticalAlign=bottom;rounded=0;exitX=0;exitY=0.5;exitDx=0;exitDy=0;entryX=1;entryY=0.5;entryDx=0;entryDy=0;" edge="1" parent="1" source="trHiihsDUhTbvpWH3-bE-39" target="trHiihsDUhTbvpWH3-bE-12">
          <mxGeometry x="-1" y="3" relative="1" as="geometry">
            <mxPoint x="380" y="609.55" as="sourcePoint" />
            <mxPoint x="220" y="609.55" as="targetPoint" />
          </mxGeometry>
        </mxCell>
        <mxCell id="trHiihsDUhTbvpWH3-bE-51" value="0..*" style="edgeLabel;html=1;align=center;verticalAlign=middle;resizable=0;points=[];" vertex="1" connectable="0" parent="trHiihsDUhTbvpWH3-bE-48">
          <mxGeometry x="0.2574" relative="1" as="geometry">
            <mxPoint as="offset" />
          </mxGeometry>
        </mxCell>
        <mxCell id="trHiihsDUhTbvpWH3-bE-55" value="" style="endArrow=block;startArrow=block;endFill=1;startFill=1;html=1;rounded=0;exitX=0;exitY=0.5;exitDx=0;exitDy=0;entryX=1;entryY=0.5;entryDx=0;entryDy=0;" edge="1" parent="1" source="trHiihsDUhTbvpWH3-bE-11" target="trHiihsDUhTbvpWH3-bE-3">
          <mxGeometry width="160" relative="1" as="geometry">
            <mxPoint x="520" y="290" as="sourcePoint" />
            <mxPoint x="580" y="430" as="targetPoint" />
            <Array as="points" />
          </mxGeometry>
        </mxCell>
        <mxCell id="trHiihsDUhTbvpWH3-bE-56" value="1" style="edgeLabel;html=1;align=center;verticalAlign=middle;resizable=0;points=[];" vertex="1" connectable="0" parent="trHiihsDUhTbvpWH3-bE-55">
          <mxGeometry x="0.71" relative="1" as="geometry">
            <mxPoint as="offset" />
          </mxGeometry>
        </mxCell>
        <mxCell id="trHiihsDUhTbvpWH3-bE-57" value="1" style="edgeLabel;html=1;align=center;verticalAlign=middle;resizable=0;points=[];" vertex="1" connectable="0" parent="trHiihsDUhTbvpWH3-bE-55">
          <mxGeometry x="-0.7" y="-1" relative="1" as="geometry">
            <mxPoint as="offset" />
          </mxGeometry>
        </mxCell>
        <mxCell id="trHiihsDUhTbvpWH3-bE-58" value="" style="endArrow=block;startArrow=block;endFill=1;startFill=1;html=1;rounded=0;exitX=0;exitY=0.25;exitDx=0;exitDy=0;entryX=1;entryY=0.5;entryDx=0;entryDy=0;" edge="1" parent="1" source="trHiihsDUhTbvpWH3-bE-3" target="trHiihsDUhTbvpWH3-bE-9">
          <mxGeometry width="160" relative="1" as="geometry">
            <mxPoint x="640" y="290" as="sourcePoint" />
            <mxPoint x="500" y="380" as="targetPoint" />
            <Array as="points" />
          </mxGeometry>
        </mxCell>
        <mxCell id="trHiihsDUhTbvpWH3-bE-59" value="1" style="edgeLabel;html=1;align=center;verticalAlign=middle;resizable=0;points=[];" vertex="1" connectable="0" parent="trHiihsDUhTbvpWH3-bE-58">
          <mxGeometry x="0.71" relative="1" as="geometry">
            <mxPoint as="offset" />
          </mxGeometry>
        </mxCell>
        <mxCell id="trHiihsDUhTbvpWH3-bE-60" value="1" style="edgeLabel;html=1;align=center;verticalAlign=middle;resizable=0;points=[];" vertex="1" connectable="0" parent="trHiihsDUhTbvpWH3-bE-58">
          <mxGeometry x="-0.7" y="-1" relative="1" as="geometry">
            <mxPoint as="offset" />
          </mxGeometry>
        </mxCell>
        <mxCell id="trHiihsDUhTbvpWH3-bE-61" value="1" style="endArrow=open;html=1;endSize=12;startArrow=diamondThin;startSize=14;startFill=0;edgeStyle=orthogonalEdgeStyle;align=left;verticalAlign=bottom;rounded=0;exitX=0.5;exitY=1;exitDx=0;exitDy=0;" edge="1" parent="1" source="trHiihsDUhTbvpWH3-bE-10">
          <mxGeometry x="-1" y="3" relative="1" as="geometry">
            <mxPoint x="159.55" y="410" as="sourcePoint" />
            <mxPoint x="150" y="360" as="targetPoint" />
          </mxGeometry>
        </mxCell>
        <mxCell id="trHiihsDUhTbvpWH3-bE-64" value="1..*" style="edgeLabel;html=1;align=center;verticalAlign=middle;resizable=0;points=[];" vertex="1" connectable="0" parent="trHiihsDUhTbvpWH3-bE-61">
          <mxGeometry x="0.4871" relative="1" as="geometry">
            <mxPoint as="offset" />
          </mxGeometry>
        </mxCell>
      </root>
    </mxGraphModel>
  </diagram>
</mxfile>
